<svg width="20" height="23" viewBox="0 0 20 23" fill="none" xmlns="http://www.w3.org/2000/svg">
<path d="M9.77778 17.8117C9.71941 18.0166 9.61995 18.2084 9.48506 18.3761C9.35017 18.5438 9.1825 18.6841 8.99162 18.789C8.80075 18.894 8.5904 18.9615 8.3726 18.9877C8.1548 19.0139 7.9338 18.9982 7.72222 18.9417C7.51065 18.8852 7.31264 18.7888 7.13951 18.6582C6.96637 18.5275 6.8215 18.3651 6.71317 18.1802C6.60483 17.9953 6.53516 17.7916 6.50811 17.5806C6.48107 17.3697 6.49719 17.1556 6.55556 16.9507M5 14.6906L15 12V18.4574L5 16.3049V14.6906Z" stroke="red" stroke-linecap="round" stroke-linejoin="round"/>
<path d="M1 10H19M1 10V20C1 20.5305 1.21071 21.0392 1.58579 21.4143C1.96086 21.7893 2.46957 22 3 22H17C17.5304 22 18.0391 21.7893 18.4142 21.4143C18.7893 21.0392 19 20.5305 19 20V10M1 10L3.45 5.10005C3.61696 4.7687 3.87281 4.49034 4.18893 4.29607C4.50504 4.10181 4.86897 3.99932 5.24 4.00005H6M19 10L16.56 5.10005C16.3923 4.76718 16.1349 4.4878 15.8168 4.29344C15.4988 4.09907 15.1327 3.99745 14.76 4.00005H14" stroke="red" stroke-width="1.5" stroke-linecap="round" stroke-linejoin="round"/>
<path d="M8.25 6.6V4.5C8.25 4.03587 8.43437 3.59075 8.76256 3.26256C9.09075 2.93437 9.53587 2.75 10 2.75C10.4641 2.75 10.9092 2.93437 11.2374 3.26256C11.5656 3.59075 11.75 4.03587 11.75 4.5V6.6M8.25 6.6H11.75M8.25 6.6C8.06435 6.6 7.8863 6.67375 7.75502 6.80503C7.62375 6.9363 7.55 7.11435 7.55 7.3V7.65C7.55 7.74283 7.58687 7.83185 7.65251 7.89749C7.71815 7.96313 7.80717 8 7.9 8H12.1C12.1928 8 12.2818 7.96313 12.3475 7.89749C12.4131 7.83185 12.45 7.74283 12.45 7.65V7.3C12.45 7.11435 12.3762 6.9363 12.245 6.80503C12.1137 6.67375 11.9356 6.6 11.75 6.6M12.275 1.875L12.1 2.05M10 1V1.35M7.52515 2.02515L7.7726 2.2726M10 4.5V6.6" stroke="red" stroke-linecap="round" stroke-linejoin="round"/>
</svg>
